<svg width="400" height="600" xmlns="http://www.w3.org/2000/svg" viewBox="0 0 400 600">
    <defs>
        <linearGradient id="scythe-blade" x1="0%" y1="0%" x2="100%" y2="0%">
            <stop offset="0%" style="stop-color:#b0c4de"/>
            <stop offset="50%" style="stop-color:#87ceeb"/>
            <stop offset="100%" style="stop-color:#6495ed"/>
        </linearGradient>
        <radialGradient id="frost-glow">
            <stop offset="0%" style="stop-color:#87ceeb;stop-opacity:0.8"/>
            <stop offset="100%" style="stop-color:#4682b4;stop-opacity:0.2"/>
        </radialGradient>
        <filter id="frost-effect">
            <feGaussianBlur stdDeviation="4"/>
        </filter>
    </defs>
    
    <rect width="400" height="600" fill="#0a0a0a"/>
    <circle cx="200" cy="250" r="150" fill="url(#frost-glow)" filter="url(#frost-effect)"/>
    
    <!-- Friede's Scythe -->
    <g transform="translate(200, 300)">
        <!-- Handle -->
        <rect x="-4" y="-150" width="8" height="280" fill="#2c2c2c" stroke="#444"/>
        
        <!-- Scythe blade -->
        <path d="M0,-150 Q60,-140 100,-100 Q120,-60 110,-20 Q100,10 70,30 L60,25 Q85,5 95,-25 Q105,-60 85,-95 Q50,-130 0,-140 Z" 
              fill="url(#scythe-blade)" stroke="#4682b4" stroke-width="2" opacity="0.9"/>
        
        <!-- Frost crystals on blade -->
        <g opacity="0.6">
            <polygon points="20,-120 25,-115 20,-110 15,-115" fill="#e0ffff"/>
            <polygon points="50,-100 55,-95 50,-90 45,-95" fill="#e0ffff"/>
            <polygon points="80,-70 85,-65 80,-60 75,-65" fill="#e0ffff"/>
        </g>
        
        <!-- Ice effect on edge -->
        <path d="M0,-140 Q55,-130 90,-95 Q110,-60 100,-25 Q90,5 65,25" 
              stroke="#e0ffff" stroke-width="1" fill="none" opacity="0.8"/>
        
        <!-- Handle details -->
        <circle cx="0" cy="135" r="8" fill="#4682b4" opacity="0.6"/>
        <rect x="-6" y="80" width="12" height="50" fill="#1a1a1a"/>
    </g>
    
    <text x="200" y="500" text-anchor="middle" font-family="Cinzel, serif" font-size="26" fill="#87ceeb">FRIEDE'S SCYTHE</text>
    <text x="200" y="525" text-anchor="middle" font-family="Arial, sans-serif" font-size="16" fill="#6495ed">Frost Reaper</text>
</svg>