<svg width="400" height="600" xmlns="http://www.w3.org/2000/svg" viewBox="0 0 400 600">
    <defs>
        <linearGradient id="longsword-blade" x1="0%" y1="0%" x2="0%" y2="100%">
            <stop offset="0%" style="stop-color:#e8e8e8"/>
            <stop offset="50%" style="stop-color:#c0c0c0"/>
            <stop offset="100%" style="stop-color:#808080"/>
        </linearGradient>
        <radialGradient id="longsword-bg">
            <stop offset="0%" style="stop-color:rgba(212,175,55,0.1)"/>
            <stop offset="100%" style="stop-color:rgba(26,26,26,1)"/>
        </radialGradient>
    </defs>
    
    <rect width="400" height="600" fill="url(#longsword-bg)"/>
    
    <!-- Longsword -->
    <g transform="translate(200, 300)">
        <!-- Blade -->
        <path d="M0,-230 L8,-50 L5,50 L0,60 L-5,50 L-8,-50 Z" fill="url(#longsword-blade)" stroke="#666" stroke-width="0.5"/>
        <!-- Fuller -->
        <line x1="0" y1="-220" x2="0" y2="-60" stroke="#999" stroke-width="2" opacity="0.4"/>
        <!-- Blade highlight -->
        <path d="M-4,-220 L-3,-60" stroke="#fff" stroke-width="0.5" opacity="0.4"/>
        
        <!-- Cross guard -->
        <rect x="-50" y="50" width="100" height="8" fill="#8B7355" stroke="#654321"/>
        <rect x="-3" y="48" width="6" height="12" fill="#8B7355"/>
        
        <!-- Handle -->
        <rect x="-6" y="58" width="12" height="70" fill="#4a3c28" stroke="#2a1c08"/>
        <!-- Leather wrap -->
        <g opacity="0.4">
            <path d="M-6,62 L6,68 M-6,68 L6,74 M-6,74 L6,80 M-6,80 L6,86 M-6,86 L6,92 M-6,92 L6,98 M-6,98 L6,104 M-6,104 L6,110 M-6,110 L6,116 M-6,116 L6,122" 
                  stroke="#1a0c00" stroke-width="1.5"/>
        </g>
        
        <!-- Pommel -->
        <ellipse cx="0" cy="135" rx="12" ry="15" fill="#8B7355" stroke="#654321"/>
        <circle cx="0" cy="135" r="8" fill="#654321" opacity="0.5"/>
    </g>
    
    <text x="200" y="500" text-anchor="middle" font-family="Cinzel, serif" font-size="28" fill="#d4af37">LONGSWORD</text>
    <text x="200" y="525" text-anchor="middle" font-family="Arial, sans-serif" font-size="16" fill="#999">Straight Sword</text>
</svg>