<svg width="400" height="600" xmlns="http://www.w3.org/2000/svg" viewBox="0 0 400 600">
    <defs>
        <radialGradient id="murky-gradient">
            <stop offset="0%" style="stop-color:#4B0082"/>
            <stop offset="50%" style="stop-color:#2F0147"/>
            <stop offset="100%" style="stop-color:#000000"/>
        </radialGradient>
        <filter id="dark-blur">
            <feGaussianBlur stdDeviation="3"/>
        </filter>
    </defs>
    
    <rect width="400" height="600" fill="#000"/>
    <ellipse cx="200" cy="300" rx="120" ry="180" fill="url(#murky-gradient)" opacity="0.4" filter="url(#dark-blur)"/>
    
    <!-- Murky Hand Scythe -->
    <g transform="translate(200, 300)">
        <!-- Small handle -->
        <rect x="-3" y="-50" width="6" height="120" fill="#1a0a2e" stroke="#16003b"/>
        
        <!-- Small curved blade -->
        <path d="M0,-50 Q30,-45 45,-25 Q55,-5 50,15 Q45,30 30,40 L25,37 Q38,28 43,15 Q48,-2 40,-18 Q25,-38 0,-43 Z" 
              fill="#4B0082" stroke="#6A0DAD" stroke-width="1.5" opacity="0.8"/>
        
        <!-- Dark energy effect -->
        <path d="M0,-43 Q27,-38 40,-20 Q48,-3 44,13 Q40,25 28,35" 
              stroke="#8B008B" stroke-width="2" fill="none" opacity="0.6" filter="url(#dark-blur)"/>
        
        <!-- Murky drips -->
        <ellipse cx="15" cy="-20" rx="2" ry="4" fill="#4B0082" opacity="0.7"/>
        <ellipse cx="30" cy="0" rx="2" ry="5" fill="#4B0082" opacity="0.7"/>
        <ellipse cx="35" cy="20" rx="2" ry="4" fill="#4B0082" opacity="0.7"/>
        
        <!-- Handle wrap -->
        <rect x="-4" y="40" width="8" height="25" fill="#16003b"/>
        <ellipse cx="0" cy="70" r="6" fill="#2F0147"/>
    </g>
    
    <text x="200" y="500" text-anchor="middle" font-family="Cinzel, serif" font-size="24" fill="#8B008B">MURKY HAND SCYTHE</text>
    <text x="200" y="525" text-anchor="middle" font-family="Arial, sans-serif" font-size="16" fill="#6A0DAD">Dark Dagger</text>
</svg>